<?xml version="1.0" encoding="utf-8"?>
<!-- Generator: Adobe Illustrator 24.2.3, SVG Export Plug-In . SVG Version: 6.00 Build 0)  -->
<svg version="1.1" id="Layer_1" xmlns="http://www.w3.org/2000/svg" xmlns:xlink="http://www.w3.org/1999/xlink" x="0px" y="0px"
	 viewBox="0 0 636 388" style="enable-background:new 0 0 636 388;" xml:space="preserve">
<style type="text/css">
	.st0{fill:#959290;}
	.st1{fill:#F9D6BC;}
	.st2{fill-rule:evenodd;clip-rule:evenodd;fill:#F2F2F2;stroke:#F2F2F2;stroke-width:0.12;stroke-miterlimit:10;}
	.st3{fill-rule:evenodd;clip-rule:evenodd;fill:#959290;}
</style>
<g>
	<rect id="XMLID_848_" x="0.26" y="1.06" class="st0" width="635.48" height="386.94"/>
	<g id="XMLID_192_">
		<path id="XMLID_832_" class="st1" d="M294.55,266.76c-7.61-7.42-9.91-16.47-9.67-26.4c0.14-0.1,0.29-0.19,0.43-0.29
			c0.39,0.24,0.83,0.42,1.16,0.71c7.04,6.16,13.36,12.92,17.52,21.44c1.33,2.72,2.33,5.59,2.4,8.65c0.01,0.65-0.45,1.51-0.96,1.95
			c-3.22,2.77-7.08,4.21-11.2,4.92c-2.15,0.37-4.35,0.57-6.52,0.57c-7.5-0.01-14.61-1.84-21.43-4.86c-0.44-0.19-0.87-0.41-1.7-0.81
			c0.81-0.51,1.35-0.99,1.99-1.24c7.53-2.9,15.26-4.82,23.38-4.89c1.16-0.01,2.33,0.16,3.5,0.23
			C293.77,266.78,294.12,266.76,294.55,266.76z"/>
		<path id="XMLID_831_" class="st1" d="M370.04,272.54c-4.13,2.23-8.28,3.9-12.7,4.6c-3.87,0.61-7.81,1.16-11.71,1.11
			c-4.87-0.06-9.67-1.08-13.86-3.82c-3.82-2.49-3.74-2.31-2.66-6.91c1.22-5.2,3.94-9.69,7.19-13.88c3.56-4.59,7.42-8.89,11.9-12.6
			c0.44-0.36,0.92-0.68,1.67-1.23c0.7,5.26-0.15,10.01-1.74,14.66c-1.59,4.64-3.6,9.03-7.74,12.2c5.24-0.5,10.29-0.05,15.33,1.04
			C360.69,268.8,365.59,269.96,370.04,272.54z"/>
		<path id="XMLID_830_" class="st1" d="M244.75,256.82c3.9-2.77,21.74-3.13,30.08-0.79c-3.74-3.49-5.39-8.03-6.18-12.84
			c-0.78-4.76-1.18-9.6,0.57-14.25c0.18-0.05,0.36-0.09,0.54-0.14c2.36,3.19,4.86,6.29,7.03,9.6c3.13,4.76,5.89,9.77,7.29,15.35
			c0.6,2.38,0.73,4.9,0.9,7.36c0.04,0.56-0.56,1.35-1.08,1.71c-2.95,2.04-6.33,3.02-9.85,3.25c-10.4,0.66-19.73-2.47-28.24-8.33
			C245.46,257.51,245.16,257.19,244.75,256.82z"/>
		<path id="XMLID_829_" class="st1" d="M360.09,256.13c5.25-2.11,10.68-1.97,16.05-1.69c4.16,0.22,8.29,0.96,12.43,1.52
			c0.44,0.06,0.84,0.41,1.55,0.77c-0.86,0.66-1.51,1.2-2.2,1.67c-5.99,4.02-12.57,6.59-19.7,7.51c-5.57,0.72-11.06,0.35-16.17-2.43
			c-1.55-0.84-2.27-1.83-2.15-3.68c0.36-5.78,2.42-10.97,5.09-16c2.77-5.22,6.26-9.96,9.97-14.53c0.12-0.14,0.29-0.23,0.71-0.56
			c1.87,4.86,1.44,9.69,0.68,14.43C365.56,247.99,363.92,252.58,360.09,256.13z"/>
		<path id="XMLID_828_" class="st1" d="M256.67,216.49c1.83,3.69,3.77,7.33,5.44,11.09c1.31,2.95,2.4,6.01,3.37,9.1
			c1.26,4,1.39,8.16,0.95,12.31c-0.07,0.68-0.86,1.58-1.52,1.85c-4.29,1.72-8.73,2.12-13.3,1.22c-8.51-1.67-15.66-5.83-21.9-11.72
			c-0.4-0.38-0.68-0.89-0.92-1.55c9.78-0.56,19.35-0.12,28.49,4.35c-2.96-3.98-4.03-8.5-4.08-13.25c-0.05-4.64,0.62-9.17,2.66-13.36
			C256.12,216.51,256.39,216.5,256.67,216.49z"/>
		<path id="XMLID_827_" class="st1" d="M377.4,243.15c9.08-4.55,18.66-4.92,28.34-4.59c0.08,0.15,0.16,0.3,0.24,0.45
			c-0.39,0.51-0.71,1.09-1.16,1.52c-4.87,4.71-10.58,8.11-16.93,10.3c-5.62,1.94-11.37,2.49-17.15,0.37
			c-1.5-0.55-2.26-1.36-2.35-3.04c-0.32-5.59,0.71-10.91,2.53-16.19c1.81-5.22,4.2-10.12,6.98-14.86c0.12-0.2,0.28-0.37,0.69-0.91
			c2.41,4.48,2.97,9.1,2.92,13.77C381.47,234.68,380.4,239.19,377.4,243.15z"/>
		<path id="XMLID_826_" class="st1" d="M242.1,227.18c-0.45-1.2-1.08-2.37-1.3-3.61c-0.42-2.37-0.89-4.8-0.83-7.19
			c0.12-4.58,1.42-8.91,3.62-12.95c0.21-0.38,0.42-0.78,0.7-1.11c0.61-0.72,1.17-0.68,1.48,0.26c1.13,3.52,2.45,6.99,3.29,10.58
			c1.07,4.55,1.78,9.21,1.4,13.91c-0.2,2.45-0.62,4.95-1.44,7.25c-0.28,0.79-2.03,1.37-3.17,1.5c-5.39,0.62-10.42-0.73-15.14-3.26
			c-5.56-2.98-10.2-7.08-13.99-12.12c-0.45-0.6-0.6-1.43-0.9-2.15c0.75-0.02,1.53-0.21,2.24-0.04c4.29,1.01,8.59,1.97,12.81,3.21
			c3.35,0.98,6.56,2.38,9.29,4.69c0.54,0.46,1.15,0.82,1.73,1.22C241.96,227.3,242.03,227.24,242.1,227.18z"/>
		<path id="XMLID_825_" class="st1" d="M392.5,227.53c0.76-0.5,1.22-0.75,1.62-1.09c3.59-3,7.86-4.59,12.29-5.78
			c3.32-0.89,6.68-1.61,10.02-2.4c0.52-0.12,1.05-0.21,1.58-0.23c0.99-0.04,1.29,0.46,0.75,1.27c-0.78,1.17-1.58,2.35-2.52,3.39
			c-5.08,5.59-10.87,10.18-18.25,12.31c-3.67,1.06-7.44,1.54-11.19,0.29c-0.55-0.19-1.13-0.87-1.33-1.46
			c-1.6-4.62-1.52-9.36-0.92-14.16c0.72-5.78,2.06-11.39,4.28-16.77c0.17-0.4,0.54-0.72,0.82-1.07c0.35,0.29,0.82,0.52,1.03,0.89
			c3.4,5.94,4.77,12.33,3.79,19.12c-0.24,1.64-1.17,3.17-1.77,4.76C392.63,226.76,392.62,226.95,392.5,227.53z"/>
		<path id="XMLID_820_" class="st1" d="M398.22,184.56c5.84,7.45,9.18,15.12,6.65,24.6c3.1-3.53,6.73-6.2,10.83-8.21
			c4.02-1.97,7.99-4.07,12.49-4.67c0.11,0.12,0.23,0.24,0.34,0.36c-0.51,1.12-0.94,2.28-1.55,3.34c-3.7,6.36-8.56,11.61-15.11,15.05
			c-3.36,1.77-7,2.87-10.93,2.42c-0.95-0.11-1.43-0.52-1.86-1.35c-1.53-2.95-2.4-6.07-2.63-9.36c-0.24-3.44-0.55-6.91-0.41-10.35
			c0.13-3.2,0.78-6.38,1.26-9.56C397.4,186.2,397.79,185.6,398.22,184.56z"/>
		<path id="XMLID_819_" class="st1" d="M230.05,209.13c-2.77-9.41,0.55-17.08,6.08-24.13c0.2,0,0.39,0,0.59,0.01
			c0.25,0.75,0.59,1.49,0.74,2.26c0.99,5.23,1.71,10.51,1.24,15.84c-0.4,4.51-0.84,9.05-3.23,13.07c-0.34,0.56-1.11,1.13-1.74,1.21
			c-3.26,0.42-6.37-0.3-9.34-1.65c-8.05-3.66-13.59-9.88-17.64-17.57c-0.25-0.47-0.22-1.08-0.32-1.63c0.51,0,1.06-0.12,1.52,0.02
			c2.26,0.72,4.58,1.33,6.73,2.32c2.86,1.31,5.7,2.74,8.32,4.48C225.43,204.97,227.56,207.06,230.05,209.13z"/>
		<path id="XMLID_812_" class="st1" d="M414.54,186.97c5.08-6.15,11.34-10.38,19-13.23c-0.08,0.78-0.06,1.17-0.17,1.51
			c-2.16,6.77-5.75,12.65-11,17.46c-2.93,2.69-6.34,4.44-10.25,5.27c-1.52,0.32-2.38-0.38-3.13-1.53c-1.86-2.85-2.95-5.97-3.74-9.27
			c-1.19-4.94-1.47-9.93-1.24-14.96c0.06-1.21,0.25-2.42,0.42-3.62c0.15-1.02,0.61-1.12,1.34-0.41c2.72,2.62,4.93,5.61,6.57,9.02
			C413.83,180.27,414.7,183.47,414.54,186.97z"/>
		<path id="XMLID_811_" class="st1" d="M229.88,167.34c0.28,1.07,0.57,1.77,0.63,2.5c0.59,7.61,0.14,15.11-2.57,22.32
			c-0.59,1.57-1.59,3-2.41,4.49c-0.76,1.38-1.95,1.63-3.36,1.29c-4.07-0.97-7.57-2.96-10.57-5.87c-4.81-4.67-8.17-10.23-10.21-16.61
			c-0.12-0.39-0.06-0.83-0.08-1.25c0.45,0.02,0.95-0.07,1.35,0.09c6.78,2.83,12.72,6.82,17.6,13.09c-0.2-4.17,0.76-7.68,2.52-11.01
			C224.53,173.04,226.75,170.12,229.88,167.34z"/>
		<path id="XMLID_810_" class="st1" d="M197.5,150.75c4.31,2.06,7.69,4.68,10.78,7.71c3.09,3.04,5.17,6.73,7.01,10.73
			c-0.42-7.26,2.52-13.03,7.47-17.9c1.2-1.19,2.59-2.18,3.9-3.27c0.21,0.1,0.42,0.21,0.63,0.31c-0.1,2.11-0.06,4.23-0.33,6.32
			c-0.68,5.25-2.11,10.32-4.66,14.95c-1.25,2.26-3.03,4.26-4.73,6.23c-0.88,1.03-2.11,0.33-3.13-0.04c-3.61-1.31-6.45-3.7-8.91-6.59
			c-4.09-4.79-6.77-10.27-7.9-16.49C197.54,152.21,197.56,151.69,197.5,150.75z"/>
		<path id="XMLID_809_" class="st1" d="M419.61,169.23c2.32-6.24,6.33-11.15,11.69-14.96c1.75-1.24,3.62-2.33,5.44-3.48
			c0.17,0.11,0.34,0.23,0.5,0.34c-0.14,1.07-0.17,2.16-0.45,3.19c-1.4,5.17-3.56,9.97-7.01,14.15c-2.68,3.25-5.76,5.93-9.73,7.43
			c-1.38,0.52-2.58,0.51-3.8-0.76c-2.7-2.81-4.37-6.17-5.74-9.72c-1.98-5.12-3.25-10.41-3.05-15.96c0.01-0.39,0.17-0.89,0.45-1.1
			c0.16-0.13,0.75,0.1,1.03,0.33c3.34,2.73,6.35,5.77,8.29,9.69c1.36,2.74,2.08,5.65,1.98,8.74c-0.02,0.67,0,1.33,0,2
			C419.35,169.16,419.48,169.19,419.61,169.23z"/>
		<path id="XMLID_808_" class="st1" d="M422.83,147.23c0.5-1.25,1.04-2.48,1.48-3.74c1.95-5.68,5.91-9.75,10.53-13.3
			c0.15-0.12,0.32-0.22,0.49-0.32c0.64-0.39,1.28-0.78,1.92-1.16c0.08,0.78,0.31,1.58,0.23,2.34c-0.84,7.39-3.59,13.95-8.74,19.35
			c-1.39,1.45-3.19,2.52-4.87,3.68c-1.34,0.93-2.7,0.8-3.77-0.46c-1.88-2.21-3.92-4.33-5.48-6.76c-2.79-4.33-4.6-9.1-5.25-14.27
			c-0.08-0.67-0.34-1.33-0.37-2c-0.02-0.43,0.12-1.01,0.41-1.27c0.19-0.17,0.88,0.01,1.18,0.24c2.19,1.76,4.49,3.43,6.48,5.41
			c3.03,3.03,4.42,6.91,5,11.12c0.05,0.39,0.24,0.77,0.36,1.15C422.55,147.24,422.69,147.24,422.83,147.23z"/>
		<path id="XMLID_807_" class="st1" d="M197.27,128.44c7.23,4.57,12.31,10.54,14.47,18.85c0.14,0,0.29-0.01,0.43-0.01
			c0.18-0.48,0.44-0.94,0.51-1.43c0.47-3.32,1.48-6.45,3.5-9.16c2.14-2.88,4.77-5.25,7.87-7.08c0.4-0.24,0.87-0.37,1.53-0.65
			c0.06,0.74,0.2,1.3,0.12,1.84c-0.96,7.23-3.54,13.82-8,19.61c-0.85,1.11-1.88,2.11-2.92,3.04c-1.81,1.63-2.24,1.58-4.39,0.4
			c-4.08-2.24-6.75-5.8-9.04-9.69c-2.69-4.57-3.87-9.62-4.27-14.87C197.08,129.12,197.16,128.94,197.27,128.44z"/>
		<path id="XMLID_806_" class="st1" d="M226.14,109.74c-0.35,1.67-0.59,3.39-1.08,5.02c-1.92,6.29-5.27,11.73-10.27,16
			c-3,2.56-3.49,2.93-6.88-0.2c-4.54-4.19-7.26-9.45-8.25-15.55c-0.35-2.15-0.45-4.35-0.62-6.53c-0.04-0.5,0.12-1.02,0.23-1.95
			c6.67,5.14,10.81,11.39,12.2,19.63c2.01-8.11,6.71-13.58,14.17-16.61C225.81,109.61,225.97,109.67,226.14,109.74z"/>
		<path id="XMLID_805_" class="st1" d="M408.89,109.39c3.71,1.64,6.8,3.76,9.38,6.6c2.57,2.84,3.51,6.5,4.71,10.03
			c1.47-3.68,2.61-7.37,4.38-10.73c1.81-3.43,4.62-6.16,7.69-8.52c0.17,0.06,0.34,0.12,0.5,0.17c0,1.91,0.21,3.84-0.04,5.71
			c-0.89,6.8-3.4,12.91-8.48,17.66c-3.55,3.32-3.99,3.17-7.3,0.27c-5.12-4.51-8.62-10.11-10.3-16.78c-0.28-1.13-0.49-2.27-0.7-3.42
			C408.7,110.17,408.8,109.93,408.89,109.39z"/>
		<path id="XMLID_804_" class="st1" d="M421.95,104.97c0.45-7.83,3.37-14.44,9.42-19.9c0.26,0.81,0.56,1.39,0.63,2
			c0.44,3.63,0.05,7.17-0.89,10.71c-1.15,4.34-3.29,8.05-6.34,11.31c-1.66,1.77-2.87,2.11-4.87,0.75c-6-4.09-10.4-9.44-12.6-16.46
			c-0.22-0.7-0.46-1.39-0.62-2.1c-0.26-1.11,0.32-1.36,1.22-0.99c5.33,2.19,9.8,5.34,12.03,10.96c0.48,1.21,1.05,2.37,1.58,3.56
			C421.66,104.87,421.8,104.92,421.95,104.97z"/>
		<path id="XMLID_803_" class="st1" d="M213.16,104.84c0.69-1.48,1.43-2.95,2.07-4.45c1.98-4.72,5.78-7.45,10.22-9.47
			c0.75-0.34,1.62-0.41,2.43-0.6c-0.11,0.88-0.09,1.81-0.34,2.65c-2.1,7.06-6.49,12.43-12.38,16.67c-2.2,1.58-3.4,1.35-5.34-0.69
			c-5.39-5.66-7.46-12.5-7.3-20.16c0.02-0.92,0.19-1.84,0.39-2.74c0.18-0.8,0.63-0.93,1.23-0.3c4.15,4.34,7.39,9.15,8.06,15.33
			c0.14,1.27,0.44,2.53,0.66,3.8C212.95,104.86,213.06,104.85,213.16,104.84z"/>
		<path id="XMLID_802_" class="st1" d="M414.49,67.09c3.4,3.12,6.15,6.27,7.4,10.35c0.77,2.52,1.15,5.2,1.4,7.83
			c0.22,2.32-0.65,4.49-1.9,6.47c-0.61,0.96-1.31,1.03-2.19,0.39c-2.44-1.79-3.93-4.24-4.92-7.04c-1.85-5.22-1.66-10.51-0.58-15.83
			C413.83,68.62,414.14,68.02,414.49,67.09z"/>
		<path id="XMLID_801_" class="st1" d="M220.29,67.27c3.96,8.06,2.31,22.73-5.19,25.57c-2.14-2.14-3-4.9-2.96-7.79
			c0.09-5.79,2.11-10.91,6.09-15.19C218.98,69.06,219.61,68.13,220.29,67.27z"/>
		<path id="XMLID_800_" class="st1" d="M324.85,271.36c-0.26,0.35-0.48,0.72-0.78,1.02c-1.86,1.86-3.76,3.66-5.58,5.55
			c-0.78,0.81-1.32,0.69-2.04-0.05c-1.83-1.88-3.69-3.73-5.59-5.55c-0.77-0.74-0.8-1.31-0.03-2.06c1.94-1.9,3.81-3.88,5.79-5.75
			c0.32-0.3,1.3-0.41,1.56-0.17c2.12,2,4.15,4.09,6.19,6.17C324.56,270.73,324.65,271.02,324.85,271.36z"/>
		<path id="XMLID_704_" class="st1" d="M322.54,54.78c0-1.32,0.04-2.64-0.01-3.95c-0.04-0.98,0.29-1.44,1.32-1.43
			c2.68,0.03,5.35,0.02,8.03,0c0.93,0,1.3,0.46,1.3,1.36c-0.01,2.73,0,5.47,0.02,8.2c0.01,1.01-0.49,1.38-1.45,1.37
			c-2.58-0.03-5.16-0.04-7.74-0.01c-1.04,0.01-1.53-0.34-1.49-1.44C322.57,57.51,322.53,56.14,322.54,54.78
			C322.53,54.78,322.54,54.78,322.54,54.78z"/>
		<path id="XMLID_703_" class="st1" d="M312.46,54.88c0,1.41-0.02,2.83,0.01,4.24c0.01,0.8-0.35,1.17-1.13,1.18
			c-2.77,0.01-5.55,0.06-8.32-0.03c-0.41-0.01-1.13-0.71-1.14-1.11c-0.1-2.87-0.1-5.76-0.01-8.63c0.01-0.37,0.67-1.03,1.04-1.04
			c2.77-0.1,5.54-0.07,8.32-0.09c0.94-0.01,1.27,0.49,1.24,1.39C312.43,52.15,312.46,53.51,312.46,54.88z"/>
		<path id="XMLID_690_" class="st1" d="M395.74,94.37c-6.2,0.36-12.22-0.64-18.08-2.59c-4.69-1.56-9.37-3.21-13.9-5.17
			c-6.67-2.9-13.23-6.03-19.76-9.23c-5.9-2.89-12.04-5-18.55-5.69c-7-0.73-13.98-0.36-20.9,1.13c-7.14,1.54-14.04,3.72-20.7,6.72
			c-8.05,3.64-16.06,7.38-24.23,10.75c-6.67,2.75-13.63,4.57-20.98,3.94c-1.15-0.1-1.5,0.33-1.26,1.43c0.53,2.37,1.07,4.74,1.5,7.13
			c0.89,4.99,1.84,9.97,2.51,14.98c0.68,5.07,1.16,10.17,1.57,15.27c0.65,8.07,1.38,16.14,1.71,24.22
			c0.28,7.26,0.06,14.54,0.06,21.81h0.37c0,1.28,0.03,2.54-0.01,3.81c-0.11,4.29,0.68,8.41,2.31,12.38
			c2.44,5.93,6.34,10.87,10.89,15.21c3.71,3.55,7.81,6.74,11.98,9.74c4.29,3.09,8.77,5.96,13.37,8.57
			c6.96,3.95,14.07,7.65,21.17,11.34c3.19,1.66,6.48,3.1,9.79,4.52c1.28,0.56,2.54,1.48,4.13,0.74c5.51-2.52,11.09-4.88,16.55-7.51
			c10.85-5.23,21.1-11.41,30.39-19.17c6.92-5.79,13.04-12.23,17.62-20.07c3.06-5.25,5.27-10.83,5.56-16.9
			c0.49-10.23,0.53-20.48,0.97-30.72c0.29-6.62,0.82-13.24,1.51-19.84c0.66-6.3,1.51-12.59,2.56-18.83
			c0.9-5.42,2.15-10.78,3.31-16.15C397.54,94.59,397.36,94.28,395.74,94.37z M348.44,210.31c-3.41,2.15-6.77,4.41-10.34,6.29
			c-5.36,2.82-10.87,5.36-16.32,7.99c-1.13,0.55-2.3,1.07-3.5,1.42c-0.58,0.17-1.36,0.09-1.93-0.15
			c-10.26-4.44-20.16-9.6-29.75-15.35c-1.62-0.97-2.39-2.12-2.39-4.21c0.09-22.9,0.04-45.81,0.04-68.71c0-0.41,0.1-0.82,0.15-1.23
			c0.18-0.04,0.36-0.08,0.54-0.12c0.92,1.8,1.86,3.58,2.76,5.39c4.48,8.95,8.96,17.9,13.43,26.86
			c5.14,10.31,10.27,20.62,15.42,30.93c0.14,0.27,0.41,0.47,0.62,0.71c0.21-0.23,0.48-0.42,0.61-0.69
			c4.93-9.76,9.84-19.53,14.76-29.29c5.01-9.94,10.03-19.88,15.04-29.82c0.68-1.36,1.31-2.75,1.97-4.13
			c0.15,0.02,0.3,0.04,0.45,0.07c0.08,0.47,0.24,0.95,0.24,1.42c0.01,23.24-0.02,46.49,0.02,69.73
			C350.28,208.92,349.45,209.67,348.44,210.31z M379.36,110.51c-0.94,4.27-1.89,8.55-2.64,12.85c-0.74,4.27-1.32,8.58-1.79,12.89
			c-0.48,4.46-0.82,8.93-1.08,13.41c-0.3,5.16-0.47,10.33-0.67,15.49c-0.17,4.14-0.29,8.28-0.46,12.42
			c-0.15,3.63-1.54,6.9-3.06,10.13c-2.33,4.97-5.97,8.97-9.57,13.01c-0.24,0.27-0.57,0.46-1.1,0.89c-0.09-0.78-0.19-1.28-0.19-1.78
			c-0.01-23.49-0.01-46.99-0.01-70.48c0-2.3,0.64-3.05,2.85-3.52c0.71-0.15,1.44-0.3,2.12-0.55c0.35-0.13,0.62-0.49,0.93-0.75
			c-0.38-0.21-0.76-0.44-1.16-0.61c-0.16-0.07-0.38-0.01-0.58-0.01c-7.01,0-14.03,0-21.04,0c-0.39,0-0.79-0.03-1.16,0.05
			c-0.25,0.06-0.67,0.32-0.65,0.44c0.05,0.28,0.24,0.67,0.48,0.77c0.98,0.43,2.01,0.73,3,1.14c1.88,0.77,2.25,1.56,1.37,3.41
			c-1.9,4-3.88,7.95-5.85,11.92c-3,6.05-6,12.1-9.03,18.13c-3.19,6.35-6.42,12.67-9.63,19.01c-0.61,1.21-1.18,2.45-1.8,3.66
			c-0.16,0.31-0.55,0.81-0.71,0.77c-0.34-0.09-0.72-0.43-0.88-0.76c-2.95-5.81-5.86-11.63-8.8-17.45
			c-4.27-8.46-8.56-16.92-12.83-25.38c-1.6-3.16-3.16-6.34-4.74-9.52c-1.22-2.46-0.98-3.07,1.59-3.96c0.92-0.32,1.86-0.56,2.76-0.92
			c0.25-0.1,0.38-0.48,0.56-0.74c-0.25-0.18-0.49-0.48-0.77-0.52c-0.57-0.09-1.17-0.05-1.75-0.05c-6.92,0-13.83,0-20.75,0
			c-0.34,0-0.71-0.07-1.02,0.03c-0.36,0.12-0.67,0.4-0.99,0.61c0.27,0.22,0.51,0.56,0.82,0.65c0.98,0.28,1.98,0.51,2.98,0.69
			c1.55,0.28,2.42,1.16,2.57,2.72c0.07,0.78,0.1,1.56,0.1,2.34c0.01,23.4,0.01,46.79,0.01,70.19c0,0.52-0.06,1.05-0.09,1.57
			c-0.13,0.08-0.27,0.16-0.4,0.23c-0.9-0.71-1.92-1.3-2.68-2.14c-2.67-2.96-5.36-5.91-7.84-9.03c-3.43-4.31-4.73-9.32-4.54-14.84
			c0.16-4.68,0.08-9.38-0.14-14.06c-0.35-7.64-0.74-15.29-1.42-22.91c-0.64-7.13-1.6-14.23-2.57-21.33
			c-0.37-2.69-1.13-5.33-1.78-7.98c-0.45-1.81-0.3-2.09,1.53-2c4.84,0.23,9.45-0.91,14-2.4c6.01-1.98,11.54-5.06,17.28-7.65
			c5.16-2.32,10.6-4.05,16-5.74c5.03-1.58,10.25-2.14,15.55-2c6.78,0.18,13.09,2.01,19.1,5.1c7.82,4.01,15.76,7.77,24.18,10.38
			c4.84,1.5,9.75,2.66,14.89,2.34C379.5,108.55,379.7,108.99,379.36,110.51z"/>
	</g>
	<g id="XMLID_1_">
		<g id="XMLID_28_">
			<polygon id="XMLID_191_" class="st2" points="129.45,342.36 129.45,313.45 129.45,313.28 129.62,313.28 133.37,313.28 
				133.46,313.28 133.51,313.35 145.17,330.07 156.85,313.35 156.9,313.28 156.99,313.28 160.74,313.28 160.91,313.28 
				160.91,313.45 160.91,342.36 160.91,342.54 160.74,342.54 156.24,342.54 156.07,342.54 156.07,342.36 156.07,322.13 
				145.31,337.75 145.17,337.95 145.03,337.75 134.29,322.13 134.29,342.36 134.29,342.54 134.12,342.54 129.62,342.54 
				129.45,342.54 129.45,342.36 			"/>
			<path id="XMLID_190_" class="st2" d="M203.22,343.44c-2.58,0-4.94-0.37-7.07-1.1c-2.13-0.73-4.03-1.84-5.7-3.31
				c-1.67-1.47-2.93-3.13-3.77-4.98c-0.84-1.84-1.26-3.88-1.26-6.11c0-2.23,0.42-4.27,1.25-6.12c0.83-1.85,2.09-3.5,3.75-4.95h0
				c1.67-1.45,3.57-2.54,5.71-3.27c2.13-0.72,4.5-1.09,7.09-1.09c5.24,0,9.53,1.45,12.87,4.34c1.67,1.45,2.92,3.1,3.75,4.95
				c0.83,1.85,1.25,3.89,1.25,6.14c0,2.24-0.42,4.28-1.26,6.13c-0.84,1.85-2.09,3.51-3.77,4.97c-1.67,1.47-3.58,2.57-5.72,3.29
				C208.2,343.07,205.83,343.44,203.22,343.44L203.22,343.44z"/>
			<polygon id="XMLID_184_" class="st2" points="246.08,342.36 246.08,313.45 246.08,313.28 246.25,313.28 250,313.28 
				250.09,313.28 250.14,313.35 261.8,330.07 273.48,313.35 273.53,313.28 273.62,313.28 277.37,313.28 277.54,313.28 
				277.54,313.45 277.54,342.36 277.54,342.54 277.37,342.54 272.87,342.54 272.7,342.54 272.7,342.36 272.7,322.13 261.94,337.75 
				261.8,337.95 261.66,337.75 250.92,322.13 250.92,342.36 250.92,342.54 250.75,342.54 246.25,342.54 246.08,342.54 
				246.08,342.36 			"/>
			<polygon id="XMLID_110_" class="st2" points="304.22,342.36 304.22,313.45 304.22,313.28 304.39,313.28 331.43,313.28 
				331.6,313.28 331.6,313.45 331.6,317.68 331.6,317.85 331.43,317.85 309.06,317.85 309.06,324.72 323.68,324.72 323.85,324.72 
				323.85,324.89 323.85,329.05 323.85,329.22 323.68,329.22 309.06,329.22 309.06,338.03 331.81,338.03 331.98,338.03 
				331.98,338.2 331.98,342.36 331.98,342.54 331.81,342.54 304.39,342.54 304.22,342.54 304.22,342.36 			"/>
			<polygon id="XMLID_100_" class="st2" points="364.24,342.36 364.24,313.45 364.24,313.28 364.41,313.28 366.77,313.28 
				366.85,313.28 366.9,313.34 384.91,333.32 384.91,313.45 384.91,313.28 385.08,313.28 389.51,313.28 389.68,313.28 
				389.68,313.45 389.68,342.36 389.68,342.54 389.51,342.54 387.15,342.54 387.07,342.54 387.02,342.48 369.01,322.56 
				369.01,342.36 369.01,342.54 368.83,342.54 364.41,342.54 364.24,342.54 364.24,342.36 			"/>
			<polygon id="XMLID_88_" class="st2" points="429.43,342.36 429.43,317.65 417.43,317.65 417.26,317.65 417.26,317.47 
				417.26,313.45 417.26,313.28 417.43,313.28 446.27,313.28 446.44,313.28 446.44,313.45 446.44,317.47 446.44,317.65 
				446.27,317.65 434.27,317.65 434.27,342.36 434.27,342.54 434.1,342.54 429.6,342.54 429.43,342.54 429.43,342.36 			"/>
			<path id="XMLID_87_" class="st2" d="M474.75,338.58l2.19-3.79l0.09-0.16l0.15,0.1c0.98,0.66,2.02,1.25,3.09,1.76v0
				c1.07,0.51,2.19,0.95,3.35,1.32l0,0c1.17,0.37,2.31,0.65,3.42,0.84c1.11,0.18,2.2,0.28,3.26,0.28c1.27,0,2.42-0.13,3.44-0.39
				c1.02-0.26,1.91-0.64,2.69-1.16c0.77-0.51,1.34-1.09,1.72-1.74c0.38-0.64,0.56-1.36,0.56-2.15c0-0.79-0.17-1.48-0.52-2.07
				c-0.35-0.58-0.87-1.07-1.56-1.46c-0.71-0.39-1.62-0.69-2.73-0.91c-1.13-0.22-2.46-0.35-4.01-0.4c-2.63-0.04-4.85-0.21-6.66-0.51
				c-1.83-0.31-3.24-0.76-4.24-1.34l0,0c-1.01-0.6-1.77-1.38-2.27-2.37c-0.5-0.98-0.75-2.15-0.75-3.5c0-1.27,0.28-2.42,0.82-3.44
				c0.55-1.02,1.37-1.92,2.47-2.69c1.09-0.77,2.37-1.34,3.84-1.73c1.46-0.38,3.11-0.57,4.93-0.57c1.25,0,2.47,0.09,3.68,0.26
				c1.21,0.18,2.4,0.44,3.58,0.8l0,0c1.17,0.35,2.32,0.78,3.44,1.3c1.13,0.52,2.25,1.13,3.34,1.82l0.14,0.09l-0.09,0.14l-2.27,3.74
				l-0.09,0.15l-0.15-0.1c-0.89-0.6-1.82-1.14-2.78-1.6c-0.96-0.46-1.96-0.86-2.99-1.2l0,0c-1.03-0.33-2.04-0.57-3.02-0.74
				s-1.94-0.25-2.88-0.25c-1.08,0-2.06,0.09-2.93,0.28c-0.86,0.19-1.62,0.47-2.26,0.84l0,0c-0.64,0.37-1.12,0.8-1.44,1.27
				c-0.31,0.47-0.47,1-0.47,1.58c0,0.6,0.16,1.12,0.47,1.55c0.32,0.43,0.79,0.77,1.43,1.03c0.65,0.27,1.55,0.46,2.7,0.6
				c1.15,0.13,2.56,0.2,4.2,0.2c2.31,0,4.34,0.19,6.08,0.59c1.75,0.39,3.22,0.98,4.41,1.78c1.19,0.8,2.09,1.78,2.69,2.97
				c0.6,1.18,0.9,2.55,0.9,4.12c0,1.39-0.31,2.67-0.91,3.82c-0.61,1.16-1.51,2.2-2.72,3.12h0c-2.4,1.83-5.52,2.74-9.33,2.74
				c-1.41,0-2.81-0.1-4.2-0.3c-1.39-0.2-2.79-0.5-4.17-0.9h0c-1.38-0.4-2.71-0.89-3.98-1.45c-1.27-0.57-2.48-1.22-3.64-1.96
				l-0.14-0.09L474.75,338.58z"/>
			<g id="XMLID_29_">
				<rect id="XMLID_56_" x="311.87" y="303.45" class="st2" width="3.43" height="3.44"/>
				<rect id="XMLID_30_" x="320.03" y="303.45" class="st2" width="3.43" height="3.44"/>
			</g>
		</g>
		<path id="XMLID_19_" class="st3" d="M203.44,337.88c1.76,0,3.36-0.24,4.8-0.72c1.43-0.48,2.7-1.19,3.81-2.14
			c1.1-0.94,1.93-2.02,2.48-3.22c0.55-1.2,0.83-2.54,0.83-4.01c0-2.91-1.11-5.31-3.33-7.22c-1.11-0.95-2.38-1.67-3.81-2.15
			c-1.43-0.48-3.02-0.72-4.77-0.72c-1.75,0-3.34,0.24-4.77,0.71c-1.42,0.47-2.68,1.19-3.79,2.14v0c-1.1,0.94-1.93,2.02-2.47,3.23
			c-0.55,1.2-0.82,2.54-0.82,4.01c0,1.47,0.27,2.81,0.82,4.01c0.55,1.21,1.38,2.28,2.47,3.23v0c1.1,0.95,2.36,1.66,3.79,2.14
			C200.1,337.65,201.69,337.88,203.44,337.88L203.44,337.88z"/>
	</g>
</g>
</svg>
